<?xml version="1.0" encoding="UTF-8" standalone="no"?>
<!DOCTYPE svg PUBLIC "-//W3C//DTD SVG 1.1//EN"
 "http://www.w3.org/Graphics/SVG/1.1/DTD/svg11.dtd">
<!-- Generated by graphviz version 15.1.0 (20260618.0150)
 -->
<!-- Title: binarytree.h Pages: 1 -->
<svg width="228pt" height="140pt"
 viewBox="0.00 0.00 228.00 140.00" xmlns="http://www.w3.org/2000/svg" xmlns:xlink="http://www.w3.org/1999/xlink">

<svg id="main" version="1.1" xmlns="http://www.w3.org/2000/svg" xmlns:xlink="http://www.w3.org/1999/xlink" xml:space="preserve">

<style type="text/css"><![CDATA[
.node, .edge {opacity: 0.7;}
.node.selected, .edge.selected {opacity: 1;}
.edge:hover path { stroke: red; }
.edge:hover polygon { stroke: red; fill: red; }
]]></style>
<script type="application/ecmascript" xlink:href="svg.min.js"/>
<svg id="graph" class="graph">
<g id="graph0" class="graph" transform="scale(1 1) rotate(0) translate(4 136)">
<title>binarytree.h</title>
<!-- Node1 -->
<g id="Node000001" class="node">
<title>Node1</title>
<g id="a_Node000001"><a xlink:title="Árbol binario de búsqueda (BST) genérico basado en políticas.">
<polygon fill="#999999" stroke="#666666" points="178.62,-132 111.62,-132 111.62,-112 178.62,-112 178.62,-132"/>
<text xml:space="preserve" text-anchor="middle" x="145.12" y="-118.5" font-family="Helvetica,sans-Serif" font-size="10.00">binarytree.h</text>
</a>
</g>
</g>
<!-- Node2 -->
<g id="Node000002" class="node">
<title>Node2</title>
<g id="a_Node000002"><a xlink:href="_demo_binary_tree_8cpp.html" target="_top" xlink:title="Demo del BST: inserciones, 6 recorridos, copia/movimiento, persistencia y comparador descendente.">
<polygon fill="white" stroke="#666666" points="108.25,-76 0,-76 0,-56 108.25,-56 108.25,-76"/>
<text xml:space="preserve" text-anchor="middle" x="54.12" y="-62.5" font-family="Helvetica,sans-Serif" font-size="10.00">DemoBinaryTree.cpp</text>
</a>
</g>
</g>
<!-- Node1&#45;&gt;Node2 -->
<g id="edge1_Node000001_Node000002" class="edge">
<title>Node1&#45;&gt;Node2</title>
<g id="a_edge1_Node000001_Node000002"><a xlink:title=" ">
<path fill="none" stroke="#63b8ff" d="M119.53,-105.81C103.66,-96.39 83.76,-84.58 70.1,-76.48"/>
<polygon fill="#63b8ff" stroke="#63b8ff" points="117.59,-108.73 127.97,-110.82 121.16,-102.71 117.59,-108.73"/>
</a>
</g>
</g>
<!-- Node3 -->
<g id="Node000003" class="node">
<title>Node3</title>
<g id="a_Node000003"><a xlink:href="avl_8h.html" target="_top" xlink:title="Árbol AVL (BST auto&#45;balanceado) basado en BinaryTree (Template Method).">
<polygon fill="white" stroke="#666666" points="163.62,-76 126.62,-76 126.62,-56 163.62,-56 163.62,-76"/>
<text xml:space="preserve" text-anchor="middle" x="145.12" y="-62.5" font-family="Helvetica,sans-Serif" font-size="10.00">avl.h</text>
</a>
</g>
</g>
<!-- Node1&#45;&gt;Node3 -->
<g id="edge2_Node000001_Node000003" class="edge">
<title>Node1&#45;&gt;Node3</title>
<g id="a_edge2_Node000001_Node000003"><a xlink:title=" ">
<path fill="none" stroke="#63b8ff" d="M145.12,-100.13C145.12,-91.9 145.12,-82.85 145.12,-76.3"/>
<polygon fill="#63b8ff" stroke="#63b8ff" points="141.63,-100.08 145.13,-110.08 148.63,-100.08 141.63,-100.08"/>
</a>
</g>
</g>
<!-- Node5 -->
<g id="Node000005" class="node">
<title>Node5</title>
<g id="a_Node000005"><a xlink:href="main_8cpp_source.html" target="_top" xlink:title=" ">
<polygon fill="white" stroke="#666666" points="220,-20 164.25,-20 164.25,0 220,0 220,-20"/>
<text xml:space="preserve" text-anchor="middle" x="192.12" y="-6.5" font-family="Helvetica,sans-Serif" font-size="10.00">main.cpp</text>
</a>
</g>
</g>
<!-- Node1&#45;&gt;Node5 -->
<g id="edge5_Node000001_Node000005" class="edge">
<title>Node1&#45;&gt;Node5</title>
<g id="a_edge5_Node000001_Node000005"><a xlink:title=" ">
<path fill="none" stroke="#63b8ff" d="M158.25,-102.47C163.4,-94.58 169.05,-85.11 173.12,-76 181.67,-56.9 187.52,-32.93 190.29,-20.1"/>
<polygon fill="#63b8ff" stroke="#63b8ff" points="155.5,-100.28 152.77,-110.51 161.29,-104.21 155.5,-100.28"/>
</a>
</g>
</g>
<!-- Node4 -->
<g id="Node000004" class="node">
<title>Node4</title>
<g id="a_Node000004"><a xlink:href="_demo_a_v_l_8cpp.html" target="_top" xlink:title="Demo del AVL: inserción 1..7 (caso degenerado), asserts y comparador descendente.">
<polygon fill="white" stroke="#666666" points="146.62,-20 67.62,-20 67.62,0 146.62,0 146.62,-20"/>
<text xml:space="preserve" text-anchor="middle" x="107.12" y="-6.5" font-family="Helvetica,sans-Serif" font-size="10.00">DemoAVL.cpp</text>
</a>
</g>
</g>
<!-- Node3&#45;&gt;Node4 -->
<g id="edge3_Node000003_Node000004" class="edge">
<title>Node3&#45;&gt;Node4</title>
<g id="a_edge3_Node000003_Node000004"><a xlink:title=" ">
<path fill="none" stroke="#63b8ff" d="M132.06,-46.44C125.86,-37.62 118.71,-27.47 113.67,-20.3"/>
<polygon fill="#63b8ff" stroke="#63b8ff" points="129.02,-48.19 137.63,-54.36 134.74,-44.16 129.02,-48.19"/>
</a>
</g>
</g>
<!-- Node3&#45;&gt;Node5 -->
<g id="edge4_Node000003_Node000005" class="edge">
<title>Node3&#45;&gt;Node5</title>
<g id="a_edge4_Node000003_Node000005"><a xlink:title=" ">
<path fill="none" stroke="#63b8ff" d="M160.79,-47C168.57,-38.06 177.66,-27.62 184.03,-20.3"/>
<polygon fill="#63b8ff" stroke="#63b8ff" points="158.23,-44.61 154.31,-54.45 163.51,-49.21 158.23,-44.61"/>
</a>
</g>
</g>
</g>
</svg>
</svg>

<style type='text/css'>
<![CDATA[
[data-mouse-over-selected='false'] { opacity: 0.7; }
[data-mouse-over-selected='true']  { opacity: 1.0; }
]]>
</style>
<script type="application/ecmascript"><![CDATA[
document.addEventListener('DOMContentLoaded', (event) => {
  highlightEdges();
  highlightAdjacentNodes();
});
]]></script>
</svg>
