<?xml version="1.0" encoding="UTF-8" standalone="no"?>
<!DOCTYPE svg PUBLIC "-//W3C//DTD SVG 1.1//EN"
 "http://www.w3.org/Graphics/SVG/1.1/DTD/svg11.dtd">
<!-- Generated by graphviz version 15.1.0 (20260618.0150)
 -->
<!-- Title: BinaryTreeIterator&lt; Container, Policy &gt; Pages: 1 -->
<svg width="950pt" height="383pt"
 viewBox="0.00 0.00 950.00 383.00" xmlns="http://www.w3.org/2000/svg" xmlns:xlink="http://www.w3.org/1999/xlink">
<g id="graph0" class="graph" transform="scale(1 1) rotate(0) translate(4 378.95)">
<title>BinaryTreeIterator&lt; Container, Policy &gt;</title>
<!-- Node1 -->
<g id="Node000001" class="node">
<title>Node1</title>
<g id="a_Node000001"><a xlink:title="Iterador uniforme que materializa la cola al construirse.">
<polygon fill="#999999" stroke="#666666" points="610.75,-193 501.75,-193 501.75,-161 610.75,-161 610.75,-193"/>
<text xml:space="preserve" text-anchor="start" x="509.75" y="-179.5" font-family="Helvetica,sans-Serif" font-size="10.00">BinaryTreeIterator</text>
<text xml:space="preserve" text-anchor="middle" x="556.25" y="-167.5" font-family="Helvetica,sans-Serif" font-size="10.00">&lt; Container, Policy &gt;</text>
</a>
</g>
</g>
<!-- Node4 -->
<g id="Node000004" class="node">
<title>Node4</title>
<g id="a_Node000004"><a xlink:href="class_binary_tree_iterator.html" target="_top" xlink:title=" ">
<polygon fill="white" stroke="#666666" points="937.62,-354 793.38,-354 793.38,-310 937.62,-310 937.62,-354"/>
<text xml:space="preserve" text-anchor="start" x="801.38" y="-340.5" font-family="Helvetica,sans-Serif" font-size="10.00">BinaryTreeIterator</text>
<text xml:space="preserve" text-anchor="start" x="801.38" y="-328.5" font-family="Helvetica,sans-Serif" font-size="10.00">&lt; MySelf, BinaryTreeForward</text>
<text xml:space="preserve" text-anchor="middle" x="865.5" y="-316.5" font-family="Helvetica,sans-Serif" font-size="10.00">InorderPolicy &gt;</text>
</a>
</g>
</g>
<!-- Node1&#45;&gt;Node4 -->
<g id="edge3_Node000001_Node000004" class="edge">
<title>Node1&#45;&gt;Node4</title>
<g id="a_edge3_Node000001_Node000004"><a xlink:title=" ">
<path fill="none" stroke="orange" stroke-dasharray="5,2" d="M564.28,-204.42C573.61,-234.71 593.18,-282.33 628.75,-306 676.83,-338 742.98,-342.74 792.98,-340.49"/>
<polygon fill="orange" stroke="orange" points="567.65,-203.47 561.52,-194.83 560.92,-205.41 567.65,-203.47"/>
</a>
</g>
<text xml:space="preserve" text-anchor="start" x="635.88" y="-362.2" font-family="Helvetica,sans-Serif" font-size="10.00" fill="grey">&lt; MySelf, BinaryTreeForward</text>
<text xml:space="preserve" text-anchor="start" x="635.88" y="-346.2" font-family="Helvetica,sans-Serif" font-size="10.00" fill="grey">  InorderPolicy &gt;</text>
</g>
<!-- Node5 -->
<g id="Node000005" class="node">
<title>Node5</title>
<g id="a_Node000005"><a xlink:href="class_binary_tree_iterator.html" target="_top" xlink:title=" ">
<polygon fill="white" stroke="#666666" points="941.75,-292 789.25,-292 789.25,-248 941.75,-248 941.75,-292"/>
<text xml:space="preserve" text-anchor="start" x="797.25" y="-278.5" font-family="Helvetica,sans-Serif" font-size="10.00">BinaryTreeIterator</text>
<text xml:space="preserve" text-anchor="start" x="797.25" y="-266.5" font-family="Helvetica,sans-Serif" font-size="10.00">&lt; MySelf, BinaryTreeBackward</text>
<text xml:space="preserve" text-anchor="middle" x="865.5" y="-254.5" font-family="Helvetica,sans-Serif" font-size="10.00">InorderPolicy &gt;</text>
</a>
</g>
</g>
<!-- Node1&#45;&gt;Node5 -->
<g id="edge4_Node000001_Node000005" class="edge">
<title>Node1&#45;&gt;Node5</title>
<g id="a_edge4_Node000001_Node000005"><a xlink:title=" ">
<path fill="none" stroke="orange" stroke-dasharray="5,2" d="M579.9,-201.24C592.96,-213.67 610.4,-227.88 628.75,-236 679.23,-258.34 741.18,-266.62 788.9,-269.44"/>
<polygon fill="orange" stroke="orange" points="582.63,-199.01 573.06,-194.46 577.71,-203.99 582.63,-199.01"/>
</a>
</g>
<text xml:space="preserve" text-anchor="start" x="631.75" y="-288.94" font-family="Helvetica,sans-Serif" font-size="10.00" fill="grey">&lt; MySelf, BinaryTreeBackward</text>
<text xml:space="preserve" text-anchor="start" x="631.75" y="-272.94" font-family="Helvetica,sans-Serif" font-size="10.00" fill="grey">  InorderPolicy &gt;</text>
</g>
<!-- Node6 -->
<g id="Node000006" class="node">
<title>Node6</title>
<g id="a_Node000006"><a xlink:href="class_binary_tree_iterator.html" target="_top" xlink:title=" ">
<polygon fill="white" stroke="#666666" points="937.62,-230 793.38,-230 793.38,-186 937.62,-186 937.62,-230"/>
<text xml:space="preserve" text-anchor="start" x="801.38" y="-216.5" font-family="Helvetica,sans-Serif" font-size="10.00">BinaryTreeIterator</text>
<text xml:space="preserve" text-anchor="start" x="801.38" y="-204.5" font-family="Helvetica,sans-Serif" font-size="10.00">&lt; MySelf, BinaryTreeForward</text>
<text xml:space="preserve" text-anchor="middle" x="865.5" y="-192.5" font-family="Helvetica,sans-Serif" font-size="10.00">PreorderPolicy &gt;</text>
</a>
</g>
</g>
<!-- Node1&#45;&gt;Node6 -->
<g id="edge5_Node000001_Node000006" class="edge">
<title>Node1&#45;&gt;Node6</title>
<g id="a_edge5_Node000001_Node000006"><a xlink:title=" ">
<path fill="none" stroke="orange" stroke-dasharray="5,2" d="M622.45,-183.58C672.49,-188.63 741.51,-195.59 793.05,-200.79"/>
<polygon fill="orange" stroke="orange" points="622.93,-180.11 612.63,-182.59 622.22,-187.07 622.93,-180.11"/>
</a>
</g>
<text xml:space="preserve" text-anchor="start" x="635.88" y="-219.22" font-family="Helvetica,sans-Serif" font-size="10.00" fill="grey">&lt; MySelf, BinaryTreeForward</text>
<text xml:space="preserve" text-anchor="start" x="635.88" y="-203.22" font-family="Helvetica,sans-Serif" font-size="10.00" fill="grey">  PreorderPolicy &gt;</text>
</g>
<!-- Node7 -->
<g id="Node000007" class="node">
<title>Node7</title>
<g id="a_Node000007"><a xlink:href="class_binary_tree_iterator.html" target="_top" xlink:title=" ">
<polygon fill="white" stroke="#666666" points="941.75,-168 789.25,-168 789.25,-124 941.75,-124 941.75,-168"/>
<text xml:space="preserve" text-anchor="start" x="797.25" y="-154.5" font-family="Helvetica,sans-Serif" font-size="10.00">BinaryTreeIterator</text>
<text xml:space="preserve" text-anchor="start" x="797.25" y="-142.5" font-family="Helvetica,sans-Serif" font-size="10.00">&lt; MySelf, BinaryTreeBackward</text>
<text xml:space="preserve" text-anchor="middle" x="865.5" y="-130.5" font-family="Helvetica,sans-Serif" font-size="10.00">PreorderPolicy &gt;</text>
</a>
</g>
</g>
<!-- Node1&#45;&gt;Node7 -->
<g id="edge6_Node000001_Node000007" class="edge">
<title>Node1&#45;&gt;Node7</title>
<g id="a_edge6_Node000001_Node000007"><a xlink:title=" ">
<path fill="none" stroke="orange" stroke-dasharray="5,2" d="M597.95,-155.96C607.79,-151.84 618.44,-148.14 628.75,-146 681.45,-135.07 742.21,-135.37 788.85,-138.24"/>
<polygon fill="orange" stroke="orange" points="596.76,-152.67 589.05,-159.93 599.6,-159.06 596.76,-152.67"/>
</a>
</g>
<text xml:space="preserve" text-anchor="start" x="631.75" y="-167.25" font-family="Helvetica,sans-Serif" font-size="10.00" fill="grey">&lt; MySelf, BinaryTreeBackward</text>
<text xml:space="preserve" text-anchor="start" x="631.75" y="-151.25" font-family="Helvetica,sans-Serif" font-size="10.00" fill="grey">  PreorderPolicy &gt;</text>
</g>
<!-- Node8 -->
<g id="Node000008" class="node">
<title>Node8</title>
<g id="a_Node000008"><a xlink:href="class_binary_tree_iterator.html" target="_top" xlink:title=" ">
<polygon fill="white" stroke="#666666" points="937.62,-106 793.38,-106 793.38,-62 937.62,-62 937.62,-106"/>
<text xml:space="preserve" text-anchor="start" x="801.38" y="-92.5" font-family="Helvetica,sans-Serif" font-size="10.00">BinaryTreeIterator</text>
<text xml:space="preserve" text-anchor="start" x="801.38" y="-80.5" font-family="Helvetica,sans-Serif" font-size="10.00">&lt; MySelf, BinaryTreeForward</text>
<text xml:space="preserve" text-anchor="middle" x="865.5" y="-68.5" font-family="Helvetica,sans-Serif" font-size="10.00">PostorderPolicy &gt;</text>
</a>
</g>
</g>
<!-- Node1&#45;&gt;Node8 -->
<g id="edge7_Node000001_Node000008" class="edge">
<title>Node1&#45;&gt;Node8</title>
<g id="a_edge7_Node000001_Node000008"><a xlink:title=" ">
<path fill="none" stroke="orange" stroke-dasharray="5,2" d="M573,-151.3C585.63,-133.22 605.12,-110.3 628.75,-99 679.8,-74.58 744.32,-72.13 792.95,-75.06"/>
<polygon fill="orange" stroke="orange" points="570.18,-149.22 567.55,-159.48 576,-153.1 570.18,-149.22"/>
</a>
</g>
<text xml:space="preserve" text-anchor="start" x="635.88" y="-120.25" font-family="Helvetica,sans-Serif" font-size="10.00" fill="grey">&lt; MySelf, BinaryTreeForward</text>
<text xml:space="preserve" text-anchor="start" x="635.88" y="-104.25" font-family="Helvetica,sans-Serif" font-size="10.00" fill="grey">  PostorderPolicy &gt;</text>
</g>
<!-- Node9 -->
<g id="Node000009" class="node">
<title>Node9</title>
<g id="a_Node000009"><a xlink:href="class_binary_tree_iterator.html" target="_top" xlink:title=" ">
<polygon fill="white" stroke="#666666" points="941.75,-44 789.25,-44 789.25,0 941.75,0 941.75,-44"/>
<text xml:space="preserve" text-anchor="start" x="797.25" y="-30.5" font-family="Helvetica,sans-Serif" font-size="10.00">BinaryTreeIterator</text>
<text xml:space="preserve" text-anchor="start" x="797.25" y="-18.5" font-family="Helvetica,sans-Serif" font-size="10.00">&lt; MySelf, BinaryTreeBackward</text>
<text xml:space="preserve" text-anchor="middle" x="865.5" y="-6.5" font-family="Helvetica,sans-Serif" font-size="10.00">PostorderPolicy &gt;</text>
</a>
</g>
</g>
<!-- Node1&#45;&gt;Node9 -->
<g id="edge8_Node000001_Node000009" class="edge">
<title>Node1&#45;&gt;Node9</title>
<g id="a_edge8_Node000001_Node000009"><a xlink:title=" ">
<path fill="none" stroke="orange" stroke-dasharray="5,2" d="M562.56,-149.72C570.59,-116.57 589.3,-61.87 628.75,-36 675.55,-5.31 739.47,-3.37 788.94,-8.24"/>
<polygon fill="orange" stroke="orange" points="559.16,-148.86 560.39,-159.39 565.99,-150.39 559.16,-148.86"/>
</a>
</g>
<text xml:space="preserve" text-anchor="start" x="631.75" y="-57.25" font-family="Helvetica,sans-Serif" font-size="10.00" fill="grey">&lt; MySelf, BinaryTreeBackward</text>
<text xml:space="preserve" text-anchor="start" x="631.75" y="-41.25" font-family="Helvetica,sans-Serif" font-size="10.00" fill="grey">  PostorderPolicy &gt;</text>
</g>
<!-- Node2 -->
<g id="Node000002" class="node">
<title>Node2</title>
<g id="a_Node000002"><a xlink:href="classgeneral__iterator.html" target="_top" xlink:title=" ">
<polygon fill="white" stroke="#666666" points="464.75,-199 313.75,-199 313.75,-155 464.75,-155 464.75,-199"/>
<text xml:space="preserve" text-anchor="start" x="321.75" y="-185.5" font-family="Helvetica,sans-Serif" font-size="10.00">general_iterator&lt; Container,</text>
<text xml:space="preserve" text-anchor="start" x="321.75" y="-173.5" font-family="Helvetica,sans-Serif" font-size="10.00"> BinaryTreeIterator&lt; Container,</text>
<text xml:space="preserve" text-anchor="middle" x="389.25" y="-161.5" font-family="Helvetica,sans-Serif" font-size="10.00"> Policy &gt; &gt;</text>
</a>
</g>
</g>
<!-- Node2&#45;&gt;Node1 -->
<g id="edge1_Node000001_Node000002" class="edge">
<title>Node2&#45;&gt;Node1</title>
<g id="a_edge1_Node000001_Node000002"><a xlink:title=" ">
<path fill="none" stroke="#63b8ff" d="M476.28,-177C484.85,-177 493.36,-177 501.45,-177"/>
<polygon fill="#63b8ff" stroke="#63b8ff" points="476.54,-173.5 466.54,-177 476.54,-180.5 476.54,-173.5"/>
</a>
</g>
</g>
<!-- Node3 -->
<g id="Node000003" class="node">
<title>Node3</title>
<g id="a_Node000003"><a xlink:href="classgeneral__iterator.html" target="_top" xlink:title="Plantilla CRTP para iteradores uniformes en todos los contenedores.">
<polygon fill="white" stroke="#666666" points="136.75,-193 0,-193 0,-161 136.75,-161 136.75,-193"/>
<text xml:space="preserve" text-anchor="start" x="8" y="-179.5" font-family="Helvetica,sans-Serif" font-size="10.00">general_iterator&lt; Container,</text>
<text xml:space="preserve" text-anchor="middle" x="68.38" y="-167.5" font-family="Helvetica,sans-Serif" font-size="10.00"> IteratorBase &gt;</text>
</a>
</g>
</g>
<!-- Node3&#45;&gt;Node2 -->
<g id="edge2_Node000002_Node000003" class="edge">
<title>Node3&#45;&gt;Node2</title>
<g id="a_edge2_Node000002_Node000003"><a xlink:title=" ">
<path fill="none" stroke="orange" stroke-dasharray="5,2" d="M148.51,-177C198.95,-177 263.9,-177 313.48,-177"/>
<polygon fill="orange" stroke="orange" points="148.51,-173.5 138.51,-177 148.51,-180.5 148.51,-173.5"/>
</a>
</g>
<text xml:space="preserve" text-anchor="start" x="157.75" y="-198.25" font-family="Helvetica,sans-Serif" font-size="10.00" fill="grey">&lt; Container, BinaryTreeIterator</text>
<text xml:space="preserve" text-anchor="start" x="157.75" y="-182.25" font-family="Helvetica,sans-Serif" font-size="10.00" fill="grey">  &lt; Container, Policy &gt; &gt;</text>
</g>
</g>
</svg>
