<?xml version="1.0" encoding="UTF-8" standalone="no"?>
<!DOCTYPE svg PUBLIC "-//W3C//DTD SVG 1.1//EN"
 "http://www.w3.org/Graphics/SVG/1.1/DTD/svg11.dtd">
<!-- Generated by graphviz version 15.1.0 (20260618.0150)
 -->
<!-- Title: heap.h Pages: 1 -->
<!--zoomable 196 -->

<svg id="main" version="1.1" xmlns="http://www.w3.org/2000/svg" xmlns:xlink="http://www.w3.org/1999/xlink" xml:space="preserve" onload="init(evt)">

<style type="text/css"><![CDATA[
.node, .edge {opacity: 0.7;}
.node.selected, .edge.selected {opacity: 1;}
.edge:hover path { stroke: red; }
.edge:hover polygon { stroke: red; fill: red; }
]]></style>

<defs>
  <circle id="rim" cx="0" cy="0" r="7"/>
  <circle id="rim2" cx="0" cy="0" r="3.5"/>
  <g id="zoomPlus">
    <use xlink:href="#rim" fill="#404040"><set attributeName="fill" to="#808080" begin="zoomplus.mouseover" end="zoomplus.mouseout"/></use>
    <path d="M-4,0h8M0,-4v8" fill="none" stroke="white" stroke-width="1.5" pointer-events="none"/>
  </g>
  <g id="zoomMin">
    <use xlink:href="#rim" fill="#404040"><set attributeName="fill" to="#808080" begin="zoomminus.mouseover" end="zoomminus.mouseout"/></use>
    <path d="M-4,0h8" fill="none" stroke="white" stroke-width="1.5" pointer-events="none"/>
  </g>
  <g id="arrowUp" transform="translate(30 24)">
    <use xlink:href="#rim"/>
    <path pointer-events="none" fill="none" stroke="white" stroke-width="1.5" d="M0,-3.0v7 M-2.5,-0.5L0,-3.0L2.5,-0.5"/>
  </g>
  <g id="arrowRight" transform="rotate(90) translate(36 -43)">
    <use xlink:href="#rim"/>
    <path pointer-events="none" fill="none" stroke="white" stroke-width="1.5" d="M0,-3.0v7 M-2.5,-0.5L0,-3.0L2.5,-0.5"/>
  </g>
  <g id="arrowDown" transform="rotate(180) translate(-30 -48)">
    <use xlink:href="#rim"/>
    <path pointer-events="none" fill="none" stroke="white" stroke-width="1.5" d="M0,-3.0v7 M-2.5,-0.5L0,-3.0L2.5,-0.5"/>
  </g>
  <g id="arrowLeft" transform="rotate(270) translate(-36 17)">
    <use xlink:href="#rim"/>
    <path pointer-events="none" fill="none" stroke="white" stroke-width="1.5" d="M0,-3.0v7 M-2.5,-0.5L0,-3.0L2.5,-0.5"/>
  </g>
  <g id="resetDef">
    <use xlink:href="#rim2" fill="#404040"><set attributeName="fill" to="#808080" begin="reset.mouseover" end="reset.mouseout"/></use>
  </g>
</defs>
<script type="application/ecmascript">
var viewWidth = 534;
var viewHeight = 196;
var sectionId = 'dynsection-0';
</script>
<script type="application/ecmascript" xlink:href="svg.min.js"/>
<svg id="graph" class="graph">
<g id="viewport">
<title>heap.h</title>
<!-- Node1 -->
<g id="Node000001" class="node">
<title>Node1</title>
<g id="a_Node000001"><a xlink:title="Implementación de un Heap (min&#45;heap/max&#45;heap) sobre std::vector.">
<polygon fill="#999999" stroke="#666666" points="132.12,-188 86.88,-188 86.88,-168 132.12,-168 132.12,-188"/>
<text xml:space="preserve" text-anchor="middle" x="109.5" y="-174.5" font-family="Helvetica,sans-Serif" font-size="10.00">heap.h</text>
</a>
</g>
</g>
<!-- Node2 -->
<g id="Node000002" class="node">
<title>Node2</title>
<g id="a_Node000002"><a xlink:title=" ">
<polygon fill="#e0e0e0" stroke="#999999" points="81,-132 38,-132 38,-112 81,-112 81,-132"/>
<text xml:space="preserve" text-anchor="middle" x="59.5" y="-118.5" font-family="Helvetica,sans-Serif" font-size="10.00">vector</text>
</a>
</g>
</g>
<!-- Node1&#45;&gt;Node2 -->
<g id="edge1_Node000001_Node000002" class="edge">
<title>Node1&#45;&gt;Node2</title>
<g id="a_edge1_Node000001_Node000002"><a xlink:title=" ">
<path fill="none" stroke="#63b8ff" d="M100.79,-167.59C93.91,-160.16 84.11,-149.58 75.78,-140.58"/>
<polygon fill="#63b8ff" stroke="#63b8ff" points="78.5,-138.37 69.14,-133.41 73.36,-143.12 78.5,-138.37"/>
</a>
</g>
</g>
<!-- Node3 -->
<g id="Node000003" class="node">
<title>Node3</title>
<g id="a_Node000003"><a xlink:title=" ">
<polygon fill="#e0e0e0" stroke="#999999" points="43,-76 0,-76 0,-56 43,-56 43,-76"/>
<text xml:space="preserve" text-anchor="middle" x="21.5" y="-62.5" font-family="Helvetica,sans-Serif" font-size="10.00">mutex</text>
</a>
</g>
</g>
<!-- Node1&#45;&gt;Node3 -->
<g id="edge2_Node000001_Node000003" class="edge">
<title>Node1&#45;&gt;Node3</title>
<g id="a_edge2_Node000001_Node000003"><a xlink:title=" ">
<path fill="none" stroke="#63b8ff" d="M108.62,-167.71C106.95,-154.24 102.23,-129.02 89.5,-112 80.06,-99.39 65.99,-89.24 53.08,-81.79"/>
<polygon fill="#63b8ff" stroke="#63b8ff" points="54.89,-78.79 44.43,-77.13 51.57,-84.96 54.89,-78.79"/>
</a>
</g>
</g>
<!-- Node4 -->
<g id="Node000004" class="node">
<title>Node4</title>
<g id="a_Node000004"><a xlink:href="vector_8h.html" target="_top" xlink:title="Contenedor Vector&lt;Traits&gt; (almacenamiento contiguo dinámico).">
<polygon fill="white" stroke="#666666" points="230.12,-132 178.88,-132 178.88,-112 230.12,-112 230.12,-132"/>
<text xml:space="preserve" text-anchor="middle" x="204.5" y="-118.5" font-family="Helvetica,sans-Serif" font-size="10.00">vector.h</text>
</a>
</g>
</g>
<!-- Node1&#45;&gt;Node4 -->
<g id="edge3_Node000001_Node000004" class="edge">
<title>Node1&#45;&gt;Node4</title>
<g id="a_edge3_Node000001_Node000004"><a xlink:title=" ">
<path fill="none" stroke="#63b8ff" d="M126.05,-167.59C140.4,-159.44 161.43,-147.48 178.1,-138"/>
<polygon fill="#63b8ff" stroke="#63b8ff" points="179.54,-141.21 186.51,-133.23 176.08,-135.13 179.54,-141.21"/>
</a>
</g>
</g>
<!-- Node4&#45;&gt;Node3 -->
<g id="edge6_Node000004_Node000003" class="edge">
<title>Node4&#45;&gt;Node3</title>
<g id="a_edge6_Node000004_Node000003"><a xlink:title=" ">
<path fill="none" stroke="#63b8ff" d="M178.5,-113.4C150.13,-105.1 103.09,-91.3 54.23,-76.8"/>
<polygon fill="#63b8ff" stroke="#63b8ff" points="55.48,-73.52 44.9,-74.03 53.49,-80.23 55.48,-73.52"/>
</a>
</g>
</g>
<!-- Node5 -->
<g id="Node000005" class="node">
<title>Node5</title>
<g id="a_Node000005"><a xlink:title=" ">
<polygon fill="#e0e0e0" stroke="#999999" points="525.62,-76 477.38,-76 477.38,-56 525.62,-56 525.62,-76"/>
<text xml:space="preserve" text-anchor="middle" x="501.5" y="-62.5" font-family="Helvetica,sans-Serif" font-size="10.00">cstddef</text>
</a>
</g>
</g>
<!-- Node4&#45;&gt;Node5 -->
<g id="edge4_Node000004_Node000005" class="edge">
<title>Node4&#45;&gt;Node5</title>
<g id="a_edge4_Node000004_Node000005"><a xlink:title=" ">
<path fill="none" stroke="#63b8ff" d="M230.52,-117.42C276.2,-110.96 373.98,-96.32 465.88,-76.41"/>
<polygon fill="#63b8ff" stroke="#63b8ff" points="466.56,-79.84 475.58,-74.28 465.06,-73 466.56,-79.84"/>
</a>
</g>
</g>
<!-- Node6 -->
<g id="Node000006" class="node">
<title>Node6</title>
<g id="a_Node000006"><a xlink:title=" ">
<polygon fill="#e0e0e0" stroke="#999999" points="112.12,-76 60.88,-76 60.88,-56 112.12,-56 112.12,-76"/>
<text xml:space="preserve" text-anchor="middle" x="86.5" y="-62.5" font-family="Helvetica,sans-Serif" font-size="10.00">sstream</text>
</a>
</g>
</g>
<!-- Node4&#45;&gt;Node6 -->
<g id="edge5_Node000004_Node000006" class="edge">
<title>Node4&#45;&gt;Node6</title>
<g id="a_edge5_Node000004_Node000006"><a xlink:title=" ">
<path fill="none" stroke="#63b8ff" d="M183.95,-111.59C165.62,-103.21 138.51,-90.8 117.54,-81.21"/>
<polygon fill="#63b8ff" stroke="#63b8ff" points="119.14,-78.09 108.59,-77.11 116.23,-84.45 119.14,-78.09"/>
</a>
</g>
</g>
<!-- Node7 -->
<g id="Node000007" class="node">
<title>Node7</title>
<g id="a_Node000007"><a xlink:href="general__iterator_8h.html" target="_top" xlink:title="Iterador genérico base (CRTP) usado por todos los contenedores.">
<polygon fill="white" stroke="#666666" points="296,-76 205,-76 205,-56 296,-56 296,-76"/>
<text xml:space="preserve" text-anchor="middle" x="250.5" y="-62.5" font-family="Helvetica,sans-Serif" font-size="10.00">general_iterator.h</text>
</a>
</g>
</g>
<!-- Node4&#45;&gt;Node7 -->
<g id="edge7_Node000004_Node000007" class="edge">
<title>Node4&#45;&gt;Node7</title>
<g id="a_edge7_Node000004_Node000007"><a xlink:title=" ">
<path fill="none" stroke="#63b8ff" d="M212.51,-111.59C218.78,-104.24 227.67,-93.8 235.28,-84.87"/>
<polygon fill="#63b8ff" stroke="#63b8ff" points="237.78,-87.33 241.6,-77.45 232.45,-82.79 237.78,-87.33"/>
</a>
</g>
</g>
<!-- Node10 -->
<g id="Node000010" class="node">
<title>Node10</title>
<g id="a_Node000010"><a xlink:href="types_8h.html" target="_top" xlink:title="Aliases de tipos y tamaños portables para toda la librería.">
<polygon fill="white" stroke="#666666" points="187.12,-76 129.88,-76 129.88,-56 187.12,-56 187.12,-76"/>
<text xml:space="preserve" text-anchor="middle" x="158.5" y="-62.5" font-family="Helvetica,sans-Serif" font-size="10.00">../types.h</text>
</a>
</g>
</g>
<!-- Node4&#45;&gt;Node10 -->
<g id="edge10_Node000004_Node000010" class="edge">
<title>Node4&#45;&gt;Node10</title>
<g id="a_edge10_Node000004_Node000010"><a xlink:title=" ">
<path fill="none" stroke="#63b8ff" d="M196.49,-111.59C190.22,-104.24 181.33,-93.8 173.72,-84.87"/>
<polygon fill="#63b8ff" stroke="#63b8ff" points="176.55,-82.79 167.4,-77.45 171.22,-87.33 176.55,-82.79"/>
</a>
</g>
</g>
<!-- Node12 -->
<g id="Node000012" class="node">
<title>Node12</title>
<g id="a_Node000012"><a xlink:href="foreach_8h.html" target="_top" xlink:title="Algoritmos genéricos ForEach y FirstThat sobre iteradores.">
<polygon fill="white" stroke="#666666" points="379.25,-76 313.75,-76 313.75,-56 379.25,-56 379.25,-76"/>
<text xml:space="preserve" text-anchor="middle" x="346.5" y="-62.5" font-family="Helvetica,sans-Serif" font-size="10.00">../foreach.h</text>
</a>
</g>
</g>
<!-- Node4&#45;&gt;Node12 -->
<g id="edge12_Node000004_Node000012" class="edge">
<title>Node4&#45;&gt;Node12</title>
<g id="a_edge12_Node000004_Node000012"><a xlink:title=" ">
<path fill="none" stroke="#63b8ff" d="M229.23,-111.59C251.8,-103.01 285.41,-90.23 310.87,-80.55"/>
<polygon fill="#63b8ff" stroke="#63b8ff" points="312.05,-83.84 320.16,-77.02 309.57,-77.3 312.05,-83.84"/>
</a>
</g>
</g>
<!-- Node14 -->
<g id="Node000014" class="node">
<title>Node14</title>
<g id="a_Node000014"><a xlink:href="basetrait_8h.html" target="_top" xlink:title="Traits base (politics para comparadores y contenedor genérico).">
<polygon fill="white" stroke="#666666" points="459.38,-76 397.62,-76 397.62,-56 459.38,-56 459.38,-76"/>
<text xml:space="preserve" text-anchor="middle" x="428.5" y="-62.5" font-family="Helvetica,sans-Serif" font-size="10.00">basetrait.h</text>
</a>
</g>
</g>
<!-- Node4&#45;&gt;Node14 -->
<g id="edge15_Node000004_Node000014" class="edge">
<title>Node4&#45;&gt;Node14</title>
<g id="a_edge15_Node000004_Node000014"><a xlink:title=" ">
<path fill="none" stroke="#63b8ff" d="M230.2,-114.81C268.33,-105.61 340.35,-88.25 386.3,-77.17"/>
<polygon fill="#63b8ff" stroke="#63b8ff" points="387.01,-80.6 395.91,-74.86 385.37,-73.8 387.01,-80.6"/>
</a>
</g>
</g>
<!-- Node8 -->
<g id="Node000008" class="node">
<title>Node8</title>
<g id="a_Node000008"><a xlink:title=" ">
<polygon fill="#e0e0e0" stroke="#999999" points="252.38,-20 196.62,-20 196.62,0 252.38,0 252.38,-20"/>
<text xml:space="preserve" text-anchor="middle" x="224.5" y="-6.5" font-family="Helvetica,sans-Serif" font-size="10.00">algorithm</text>
</a>
</g>
</g>
<!-- Node7&#45;&gt;Node8 -->
<g id="edge8_Node000007_Node000008" class="edge">
<title>Node7&#45;&gt;Node8</title>
<g id="a_edge8_Node000007_Node000008"><a xlink:title=" ">
<path fill="none" stroke="#63b8ff" d="M245.97,-55.59C242.65,-48.7 238.03,-39.1 233.92,-30.57"/>
<polygon fill="#63b8ff" stroke="#63b8ff" points="237.13,-29.15 229.63,-21.66 230.82,-32.19 237.13,-29.15"/>
</a>
</g>
</g>
<!-- Node9 -->
<g id="Node000009" class="node">
<title>Node9</title>
<g id="a_Node000009"><a xlink:title=" ">
<polygon fill="#e0e0e0" stroke="#999999" points="310.12,-20 270.88,-20 270.88,0 310.12,0 310.12,-20"/>
<text xml:space="preserve" text-anchor="middle" x="290.5" y="-6.5" font-family="Helvetica,sans-Serif" font-size="10.00">utility</text>
</a>
</g>
</g>
<!-- Node7&#45;&gt;Node9 -->
<g id="edge9_Node000007_Node000009" class="edge">
<title>Node7&#45;&gt;Node9</title>
<g id="a_edge9_Node000007_Node000009"><a xlink:title=" ">
<path fill="none" stroke="#63b8ff" d="M257.47,-55.59C262.8,-48.39 270.33,-38.23 276.85,-29.43"/>
<polygon fill="#63b8ff" stroke="#63b8ff" points="279.57,-31.63 282.71,-21.51 273.95,-27.47 279.57,-31.63"/>
</a>
</g>
</g>
<!-- Node11 -->
<g id="Node000011" class="node">
<title>Node11</title>
<g id="a_Node000011"><a xlink:title=" ">
<polygon fill="#e0e0e0" stroke="#999999" points="178.5,-20 138.5,-20 138.5,0 178.5,0 178.5,-20"/>
<text xml:space="preserve" text-anchor="middle" x="158.5" y="-6.5" font-family="Helvetica,sans-Serif" font-size="10.00">string</text>
</a>
</g>
</g>
<!-- Node10&#45;&gt;Node11 -->
<g id="edge11_Node000010_Node000011" class="edge">
<title>Node10&#45;&gt;Node11</title>
<g id="a_edge11_Node000010_Node000011"><a xlink:title=" ">
<path fill="none" stroke="#63b8ff" d="M158.5,-55.59C158.5,-49.01 158.5,-39.96 158.5,-31.73"/>
<polygon fill="#63b8ff" stroke="#63b8ff" points="162,-31.81 158.5,-21.81 155,-31.81 162,-31.81"/>
</a>
</g>
</g>
<!-- Node12&#45;&gt;Node9 -->
<g id="edge14_Node000012_Node000009" class="edge">
<title>Node12&#45;&gt;Node9</title>
<g id="a_edge14_Node000012_Node000009"><a xlink:title=" ">
<path fill="none" stroke="#63b8ff" d="M336.75,-55.59C328.88,-48.01 317.6,-37.13 308.15,-28.02"/>
<polygon fill="#63b8ff" stroke="#63b8ff" points="310.86,-25.77 301.23,-21.35 306,-30.81 310.86,-25.77"/>
</a>
</g>
</g>
<!-- Node13 -->
<g id="Node000013" class="node">
<title>Node13</title>
<g id="a_Node000013"><a xlink:title=" ">
<polygon fill="#e0e0e0" stroke="#999999" points="381.25,-20 327.75,-20 327.75,0 381.25,0 381.25,-20"/>
<text xml:space="preserve" text-anchor="middle" x="354.5" y="-6.5" font-family="Helvetica,sans-Serif" font-size="10.00">iostream</text>
</a>
</g>
</g>
<!-- Node12&#45;&gt;Node13 -->
<g id="edge13_Node000012_Node000013" class="edge">
<title>Node12&#45;&gt;Node13</title>
<g id="a_edge13_Node000012_Node000013"><a xlink:title=" ">
<path fill="none" stroke="#63b8ff" d="M347.89,-55.59C348.88,-48.93 350.24,-39.75 351.47,-31.44"/>
<polygon fill="#63b8ff" stroke="#63b8ff" points="354.9,-32.2 352.9,-21.8 347.97,-31.17 354.9,-32.2"/>
</a>
</g>
</g>
<!-- Node15 -->
<g id="Node000015" class="node">
<title>Node15</title>
<g id="a_Node000015"><a xlink:title=" ">
<polygon fill="#e0e0e0" stroke="#999999" points="457.5,-20 399.5,-20 399.5,0 457.5,0 457.5,-20"/>
<text xml:space="preserve" text-anchor="middle" x="428.5" y="-6.5" font-family="Helvetica,sans-Serif" font-size="10.00">functional</text>
</a>
</g>
</g>
<!-- Node14&#45;&gt;Node15 -->
<g id="edge16_Node000014_Node000015" class="edge">
<title>Node14&#45;&gt;Node15</title>
<g id="a_edge16_Node000014_Node000015"><a xlink:title=" ">
<path fill="none" stroke="#63b8ff" d="M428.5,-55.59C428.5,-49.01 428.5,-39.96 428.5,-31.73"/>
<polygon fill="#63b8ff" stroke="#63b8ff" points="432,-31.81 428.5,-21.81 425,-31.81 432,-31.81"/>
</a>
</g>
</g>
</g>
</svg>

<g id="navigator" transform="translate(0 0)" fill="#404254">
  <rect fill="#f2f5e9" fill-opacity="0.5" stroke="#606060" stroke-width=".5" x="0" y="0" width="60" height="60"/>
  <use id="zoomplus" xlink:href="#zoomPlus" x="17" y="9" onmousedown="handleZoom(evt,'in')"/>
  <use id="zoomminus" xlink:href="#zoomMin" x="42" y="9" onmousedown="handleZoom(evt,'out')"/>
  <use id="reset" xlink:href="#resetDef" x="30" y="36" onmousedown="handleReset()"/>
   <use id="arrowup" xlink:href="#arrowUp" x="0" y="0" onmousedown="handlePan(0,-1)"/>
  <use id="arrowright" xlink:href="#arrowRight" x="0" y="0" onmousedown="handlePan(1,0)"/>
  <use id="arrowdown" xlink:href="#arrowDown" x="0" y="0" onmousedown="handlePan(0,1)"/>
  <use id="arrowleft" xlink:href="#arrowLeft" x="0" y="0" onmousedown="handlePan(-1,0)"/>
</g>
<svg viewBox="0 0 15 15" width="100%" height="30px" preserveAspectRatio="xMaxYMin meet">
 <g id="arrow_out" transform="scale(0.3 0.3)">
  <a xlink:href="heap_8h__incl_org.svg" target="_base">
   <rect id="button" ry="5" rx="5" y="6" x="6" height="38" width="38"
        fill="#f2f5e9" fill-opacity="0.5" stroke="#606060" stroke-width="1.0"/>
   <path id="arrow"
     d="M 11.500037,31.436501 C 11.940474,20.09759 22.043105,11.32322 32.158766,21.979434 L 37.068811,17.246167 C 37.068811,17.246167 37.088388,32 37.088388,32 L 22.160133,31.978069 C 22.160133,31.978069 26.997745,27.140456 26.997745,27.140456 C 18.528582,18.264221 13.291696,25.230495 11.500037,31.436501 z"
     style="fill:#404040;"/>
  </a>
 </g>
</svg>

<style type='text/css'>
<![CDATA[
[data-mouse-over-selected='false'] { opacity: 0.7; }
[data-mouse-over-selected='true']  { opacity: 1.0; }
]]>
</style>
<script type="application/ecmascript"><![CDATA[
document.addEventListener('DOMContentLoaded', (event) => {
  highlightEdges();
  highlightAdjacentNodes();
});
]]></script>
</svg>
