<?xml version="1.0" encoding="UTF-8" standalone="no"?>
<!DOCTYPE svg PUBLIC "-//W3C//DTD SVG 1.1//EN"
 "http://www.w3.org/Graphics/SVG/1.1/DTD/svg11.dtd">
<!-- Generated by graphviz version 15.1.0 (20260618.0150)
 -->
<!-- Title: AscendingHeapTrait&lt; T &gt; Pages: 1 -->
<svg width="247pt" height="183pt"
 viewBox="0.00 0.00 247.00 183.00" xmlns="http://www.w3.org/2000/svg" xmlns:xlink="http://www.w3.org/1999/xlink">
<g id="graph0" class="graph" transform="scale(1 1) rotate(0) translate(4 179)">
<title>AscendingHeapTrait&lt; T &gt;</title>
<!-- Node1 -->
<g id="Node000001" class="node">
<title>Node1</title>
<g id="a_Node000001"><a xlink:title="Trait para heap ascendente (min&#45;heap en el tope).">
<polygon fill="#999999" stroke="#666666" points="184,-20 56.25,-20 56.25,0 184,0 184,-20"/>
<text xml:space="preserve" text-anchor="middle" x="120.12" y="-6.5" font-family="Helvetica,sans-Serif" font-size="10.00">AscendingHeapTrait&lt; T &gt;</text>
</a>
</g>
</g>
<!-- Node2 -->
<g id="Node000002" class="node">
<title>Node2</title>
<g id="a_Node000002"><a xlink:href="struct_base_container_trait.html" target="_top" xlink:title=" ">
<polygon fill="white" stroke="#666666" points="114.25,-89 0,-89 0,-57 114.25,-57 114.25,-89"/>
<text xml:space="preserve" text-anchor="start" x="8" y="-75.5" font-family="Helvetica,sans-Serif" font-size="10.00">BaseContainerTrait</text>
<text xml:space="preserve" text-anchor="middle" x="57.13" y="-63.5" font-family="Helvetica,sans-Serif" font-size="10.00">&lt; T, HeapNode&lt; T &gt; &gt;</text>
</a>
</g>
</g>
<!-- Node2&#45;&gt;Node1 -->
<g id="edge1_Node000001_Node000002" class="edge">
<title>Node2&#45;&gt;Node1</title>
<g id="a_edge1_Node000001_Node000002"><a xlink:title=" ">
<path fill="none" stroke="#63b8ff" d="M81.23,-48.66C91.44,-38.78 102.74,-27.84 110.51,-20.31"/>
<polygon fill="#63b8ff" stroke="#63b8ff" points="78.86,-46.08 74.11,-55.55 83.73,-51.11 78.86,-46.08"/>
</a>
</g>
</g>
<!-- Node3 -->
<g id="Node000003" class="node">
<title>Node3</title>
<g id="a_Node000003"><a xlink:href="struct_base_container_trait.html" target="_top" xlink:title="Trait base que mapea un valor T a su tipo de Node.">
<polygon fill="white" stroke="#666666" points="107.12,-175 7.13,-175 7.13,-143 107.12,-143 107.12,-175"/>
<text xml:space="preserve" text-anchor="start" x="15.13" y="-161.5" font-family="Helvetica,sans-Serif" font-size="10.00">BaseContainerTrait</text>
<text xml:space="preserve" text-anchor="middle" x="57.13" y="-149.5" font-family="Helvetica,sans-Serif" font-size="10.00">&lt; _T, _Node &gt;</text>
</a>
</g>
</g>
<!-- Node3&#45;&gt;Node2 -->
<g id="edge2_Node000002_Node000003" class="edge">
<title>Node3&#45;&gt;Node2</title>
<g id="a_edge2_Node000002_Node000003"><a xlink:title=" ">
<path fill="none" stroke="orange" stroke-dasharray="5,2" d="M57.13,-131.27C57.13,-117.42 57.13,-101.01 57.13,-89.31"/>
<polygon fill="orange" stroke="orange" points="53.63,-131.08 57.13,-141.08 60.63,-131.08 53.63,-131.08"/>
</a>
</g>
<text xml:space="preserve" text-anchor="start" x="60.12" y="-112.25" font-family="Helvetica,sans-Serif" font-size="10.00" fill="grey">&lt; T, HeapNode&lt; T &gt; &gt;</text>
</g>
<!-- Node4 -->
<g id="Node000004" class="node">
<title>Node4</title>
<g id="a_Node000004"><a xlink:href="struct_ascending_trait.html" target="_top" xlink:title=" ">
<polygon fill="white" stroke="#666666" points="236.38,-83 131.88,-83 131.88,-63 236.38,-63 236.38,-83"/>
<text xml:space="preserve" text-anchor="middle" x="184.12" y="-69.5" font-family="Helvetica,sans-Serif" font-size="10.00">AscendingTrait&lt; T &gt;</text>
</a>
</g>
</g>
<!-- Node4&#45;&gt;Node1 -->
<g id="edge3_Node000001_Node000004" class="edge">
<title>Node4&#45;&gt;Node1</title>
<g id="a_edge3_Node000001_Node000004"><a xlink:title=" ">
<path fill="none" stroke="#63b8ff" d="M166.18,-54.9C154.44,-43.71 139.56,-29.52 129.94,-20.35"/>
<polygon fill="#63b8ff" stroke="#63b8ff" points="163.66,-57.33 173.31,-61.69 168.49,-52.26 163.66,-57.33"/>
</a>
</g>
</g>
<!-- Node5 -->
<g id="Node000005" class="node">
<title>Node5</title>
<g id="a_Node000005"><a xlink:href="struct_ascending_trait.html" target="_top" xlink:title="Trait que aporta el comparador ascendente (std::less&lt;T&gt;).">
<polygon fill="white" stroke="#666666" points="239.38,-169 128.88,-169 128.88,-149 239.38,-149 239.38,-169"/>
<text xml:space="preserve" text-anchor="middle" x="184.12" y="-155.5" font-family="Helvetica,sans-Serif" font-size="10.00">AscendingTrait&lt; _T &gt;</text>
</a>
</g>
</g>
<!-- Node5&#45;&gt;Node4 -->
<g id="edge4_Node000004_Node000005" class="edge">
<title>Node5&#45;&gt;Node4</title>
<g id="a_edge4_Node000004_Node000005"><a xlink:title=" ">
<path fill="none" stroke="orange" stroke-dasharray="5,2" d="M184.12,-137.3C184.12,-120.06 184.12,-96.31 184.12,-83.35"/>
<polygon fill="orange" stroke="orange" points="180.63,-137.18 184.13,-147.18 187.63,-137.18 180.63,-137.18"/>
</a>
</g>
<text xml:space="preserve" text-anchor="start" x="187.12" y="-112.25" font-family="Helvetica,sans-Serif" font-size="10.00" fill="grey">&lt; T &gt;</text>
</g>
</g>
</svg>
