<?xml version="1.0" encoding="UTF-8" standalone="no"?>
<!DOCTYPE svg PUBLIC "-//W3C//DTD SVG 1.1//EN"
 "http://www.w3.org/Graphics/SVG/1.1/DTD/svg11.dtd">
<!-- Generated by graphviz version 15.1.0 (20260618.0150)
 -->
<!-- Title: vector.h Pages: 1 -->
<svg width="160pt" height="84pt"
 viewBox="0.00 0.00 160.00 84.00" xmlns="http://www.w3.org/2000/svg" xmlns:xlink="http://www.w3.org/1999/xlink">
<g id="graph0" class="graph" transform="scale(1 1) rotate(0) translate(4 80)">
<title>vector.h</title>
<!-- Node1 -->
<g id="Node000001" class="node">
<title>Node1</title>
<g id="a_Node000001"><a xlink:title="Contenedor Vector&lt;Traits&gt; (almacenamiento contiguo dinámico).">
<polygon fill="#999999" stroke="#666666" points="112,-76 60.75,-76 60.75,-56 112,-56 112,-76"/>
<text xml:space="preserve" text-anchor="middle" x="86.38" y="-62.5" font-family="Helvetica,sans-Serif" font-size="10.00">vector.h</text>
</a>
</g>
</g>
<!-- Node2 -->
<g id="Node000002" class="node">
<title>Node2</title>
<g id="a_Node000002"><a xlink:href="_demo_vector_8cpp.html" target="_top" xlink:title="Demos del Vector: secuencial y concurrente.">
<polygon fill="white" stroke="#666666" points="88.75,-20 0,-20 0,0 88.75,0 88.75,-20"/>
<text xml:space="preserve" text-anchor="middle" x="44.38" y="-6.5" font-family="Helvetica,sans-Serif" font-size="10.00">DemoVector.cpp</text>
</a>
</g>
</g>
<!-- Node1&#45;&gt;Node2 -->
<g id="edge1_Node000001_Node000002" class="edge">
<title>Node1&#45;&gt;Node2</title>
<g id="a_edge1_Node000001_Node000002"><a xlink:title=" ">
<path fill="none" stroke="#63b8ff" d="M72.16,-46.72C65.25,-37.84 57.24,-27.55 51.61,-20.3"/>
<polygon fill="#63b8ff" stroke="#63b8ff" points="69.23,-48.65 78.13,-54.4 74.75,-44.36 69.23,-48.65"/>
</a>
</g>
</g>
<!-- Node3 -->
<g id="Node000003" class="node">
<title>Node3</title>
<g id="a_Node000003"><a xlink:href="heap_8h.html" target="_top" xlink:title="Implementación de un Heap (min&#45;heap/max&#45;heap) sobre std::vector.">
<polygon fill="white" stroke="#666666" points="152,-20 106.75,-20 106.75,0 152,0 152,-20"/>
<text xml:space="preserve" text-anchor="middle" x="129.38" y="-6.5" font-family="Helvetica,sans-Serif" font-size="10.00">heap.h</text>
</a>
</g>
</g>
<!-- Node1&#45;&gt;Node3 -->
<g id="edge2_Node000001_Node000003" class="edge">
<title>Node1&#45;&gt;Node3</title>
<g id="a_edge2_Node000001_Node000003"><a xlink:title=" ">
<path fill="none" stroke="#63b8ff" d="M100.93,-46.72C108,-37.84 116.2,-27.55 121.97,-20.3"/>
<polygon fill="#63b8ff" stroke="#63b8ff" points="98.3,-44.41 94.81,-54.41 103.78,-48.77 98.3,-44.41"/>
</a>
</g>
</g>
</g>
</svg>
